<svg version="1.0" xmlns="http://www.w3.org/2000/svg" width="682.667" height="682.667" viewBox="0 0 512 512"><path d="M237.9.4c-.2.2-4 .6-8.3 1-4.4.4-8.2.9-8.5 1.1-.4.2-3.4.7-6.6 1-10.9 1.3-38.8 8.7-49 13-1.6.7-4.9 2-7.3 2.9-6.4 2.4-20.7 9.4-29.8 14.7C77.5 63.3 37 110.9 16.5 165.6c-5.4 14.5-10.3 32-11.9 42.8-.4 2.1-.8 4.1-1 4.5-.4.6-1.2 6.8-2.6 20.1-.8 8.1-.5 46.3.5 52 .3 1.9 1.3 7.8 2.1 13C18.2 388.3 82 465.2 168.2 496.4c13.7 4.9 23.6 7.7 34.8 10 10.5 2.1 12.8 2.5 19 3.2 3 .3 7.6 1 10.2 1.4 4.9.7 47.3.5 51.8-.4 1.4-.2 4.5-.7 7-1 3.6-.5 17.1-3.1 27.1-5.1.9-.2 4.9-1.3 9-2.5 79-23.4 141.7-82.1 169.3-158.4 10.8-29.7 15-54.2 15.1-87.1 0-33.9-4.3-59.2-15.5-89.4-26.4-71.7-84.4-128.3-157-153.3-8.7-2.9-28.7-8.2-35-9.2-1.9-.3-4.6-.8-6-1.1-1.4-.3-4.5-.8-7-1.1-2.5-.3-5.6-.8-7-1-2.8-.6-45.6-1.5-46.1-1zm3.1 82.3v51.5l-10.7-.6c-6-.4-12.7-.9-15-1.2-2.4-.2-6.4-.6-9-.9-6.7-.7-17.1-2.4-28.3-4.6-5.2-1-9.8-1.9-10.2-1.9-1.3 0-.9-2.1 3.3-17.5 5-18.2 12.1-39.9 18.7-56.5l4.9-12.5 4.4-1.3c2.4-.7 5.3-1.4 6.4-1.6 1.1-.2 5.7-1.1 10.2-2 4.5-.8 11.3-1.8 15-2.2 3.7-.3 7-.7 7.1-.9.2-.2 1-.1 1.8.2 1.2.4 1.4 8.8 1.4 52zm54.5-49.2c5 .9 11.9 2.4 15.3 3.3l6.4 1.7 4.4 11c8.3 20.7 23.4 68.4 23.4 74.1 0 .9-5.4 2.7-7.7 2.6-.2 0-2.9.6-6 1.3-3.2.7-8.5 1.6-11.8 2-3.2.3-6.2.8-6.5 1-.3.2-3.7.6-7.5 1-3.9.3-8.6.8-10.5 1-1.9.3-8.1.8-13.7 1.1l-10.3.6V30.7l7.8.6c4.2.4 11.8 1.3 16.7 2.2zM151.9 67.7c-2.7 8.2-7 22.2-9.5 31.3-2.5 9.1-4.8 16.8-5 17.2-.7 1.1-41.9-13.6-44.4-15.8-1.4-1.4 23.5-22.7 37.6-32.2 7-4.6 24.8-15 26.1-15.2.1 0-2.1 6.6-4.8 14.7zm229.6.6C394.8 77.2 419 97.7 419 100c0 1.2-43.8 17.7-44.4 16.8-.1-.2-1.5-5-3-10.8-4.2-15.6-5.2-19-11.1-36.8l-5.4-16.3 8.7 4.7c4.8 2.5 12.8 7.3 17.7 10.7zm-291 63.8c4.5 2.1 26 9.9 33 12 4.1 1.2 7.5 2.7 7.5 3.3 0 .6-.6 4.5-1.4 8.6-1.8 9.7-2.5 14-3.1 20.5-.3 2.8-.8 6.3-1 7.6-.3 1.3-.7 5.3-1.1 8.9-.3 3.6-.7 7.5-.9 8.7-.3 2.1-1.4 18.2-2 30.3-.1 3-.3 6.3-.4 7.3-.1 1.6-2.8 1.7-45.3 1.5-29.5-.2-45.2-.6-45.1-1.3.1-.6.4-4.2.8-8 .3-3.9.8-7.7 1-8.5.2-.8.7-3.5 1-6 3.6-25.8 17.6-61.2 33.8-85.1l5.1-7.6 8 3.4c4.5 1.9 9 3.8 10.1 4.4zM453 145.5c15.6 28.1 25.4 59.2 27.6 87.7l.6 7.8h-45.1c-42.2 0-45.1-.1-45.2-1.8-.2-2.2-.4-6.7-1.3-22.4-.4-7-.8-13.5-1-14.5-.2-1-.7-5.3-1-9.5-.4-4.2-.9-8.7-1.1-10-.3-1.3-.7-4.4-1-6.9-.3-2.5-.7-5.4-.9-6.5-.8-4-1.9-11-2.2-13.4-.1-1.4-.6-4.1-.9-6l-.7-3.6 10.9-3.4c5.9-1.8 11.5-3.7 12.3-4.1.8-.4 6.5-2.6 12.5-5 6.1-2.3 13.7-5.4 17-6.9l6-2.7 4 5.6c2.2 3.1 6.5 10.1 9.5 15.6zm-285.5 10c2.2.4 5.6 1 7.5 1.5 1.9.5 5.8 1.2 8.5 1.6 2.8.3 5.9.8 7 1 5.9 1.2 38 4.2 46.3 4.3l4.2.1v77h-90l.5-6.8c.2-3.7.7-11.2 1-16.7.6-10.3.7-11.4 2.5-27.5 1.4-11.6 1.4-11.9 3.6-25.3 1.4-8.9 2-10.7 3.3-10.2.9.2 3.4.7 5.6 1zm184.5-.6c0 .3.7 4.8 1.5 10 1.5 9.3 1.9 12.1 3 21.6.3 2.7.8 6.1 1 7.5.7 4.8 2.4 26.1 3 38.7l.3 8.3H271v-77l4.3-.1c8.6-.2 31.1-2.1 39.4-3.4 1.8-.3 5.4-.8 8-1.1 2.7-.3 9.8-1.6 15.8-2.8 12-2.4 13.5-2.6 13.5-1.7zM121.1 272.7c0 1 .2 3.8.4 6.3.1 2.5.6 9.9 1 16.5s.8 13.3 1 15c.2 1.6.6 5.5 1 8.5.3 3 .7 7.1 1 9 .2 1.9.7 5.7 1 8.5.3 2.7 1 7.2 1.5 10 .5 2.7 1.2 6.8 1.5 9 .3 2.2.8 5.4 1.1 7l.5 3-11.8 3.9c-13.5 4.4-24.8 8.7-37.9 14.4l-9.2 3.9-5-7.6c-10.9-16.7-19.1-33.5-25.3-52.2-2.3-6.7-4.3-13.3-4.5-14.8-.3-1.4-.9-4-1.4-5.6-1.5-4.9-4-20.4-4.7-28.8l-.6-7.7h45.2c42.2 0 45.1.1 45.2 1.7zM241 309.5V348l-4.2.1c-6.7.1-22.6 1.3-32 2.5-14.6 1.7-20 2.6-43 7-1 .1-1.8 0-1.8-.4s-.7-4.8-1.4-9.7c-.8-5-1.7-11-2.1-13.5-.3-2.5-.8-5.6-1-7-.2-1.4-.7-5.4-1-9-.4-3.6-.8-8.1-1-10-.5-4.3-1.4-17.8-2-28.8l-.4-8.2H241v38.5zm119.5-30.8c-.4 7.3-1.1 18.5-2.1 29.8-.5 6.5-1.4 14.4-1.9 17.5-.3 1.4-.7 5-1 8-.3 3-.8 6.2-1 7-.2.8-.7 3.5-1.1 6-.3 2.5-.8 5.2-.9 6-.2.8-.4 2.3-.4 3.3-.1 1.3-.7 1.6-2.3 1.3-1.3-.3-6.8-1.3-12.3-2.4-18.5-3.7-46.1-6.8-63.2-7.1l-3.3-.1v-77h89.9l-.4 7.7zm120.1 0c-2.7 33.9-15.8 70.8-35.8 101.4l-5 7.6-15.1-6.4c-8.4-3.5-21.6-8.5-29.5-11.1l-14.3-4.7.5-3c.2-1.7 1.1-7.3 2-12.5.8-5.2 1.8-11.8 2.1-14.5.4-2.8.8-5.7 1-6.5.2-.8.7-5.1 1.1-9.5.3-4.4.8-9.4 1-11 .3-3.4 1.5-21.3 1.9-29.5.2-3 .3-6.1.4-6.8.1-.9 9.8-1.2 45.2-1.2h45.1l-.6 7.7zm-239.8 151c-.2 33.8-.6 51.7-1.3 51.7-.5-.1-3.9-.5-7.5-.8-12.3-1.3-18.4-2.3-28.6-4.9l-8.6-2.2-3.5-8.5c-9.7-24.3-25.8-75.8-24.1-77.5.5-.6 12.7-3.1 18.8-4 2.5-.3 7-1 10-1.5 8.5-1.4 13.8-2 22.5-2.6 4.4-.4 8.1-.7 8.2-.8.1-.1 3.4-.3 7.3-.4l7-.3-.2 51.8zm55.5-50.2c2.6.3 6.6.7 9 .9 2.3.2 6.9.9 10.2 1.5 3.3.5 7.6 1.2 9.5 1.5 6.8 1 19.3 3.6 19.8 4.1 1.7 1.7-13.5 50.7-23.4 75.5-4.2 10.5-4.2 10.5-8.6 11.8-2.3.7-5.6 1.5-7.3 1.8-15.3 2.8-20 3.5-26.7 4.1l-7.8.6V377.8l10.3.6c5.6.4 12.3.9 15 1.1zm-158.1 17.7c1.8 8.5 8.6 31.9 13.2 45.6l5.5 16.3-8.7-4.7c-9.9-5.3-24.2-14.7-32.2-21.2-7.3-5.9-23-20.3-23-21.2 0-1 40-16.4 44.1-16.9.4-.1.9.9 1.1 2.1zm253.3 3.5c7.1 2.4 13.4 4.8 14 5.2.5.4 3.8 1.8 7.3 3.1 3.4 1.2 6.2 2.6 6.2 3 0 .7-11.4 11.7-16.1 15.5-1.3 1.1-4.7 3.8-7.4 6.1-7.4 6-21.8 15.5-31.7 20.8l-8.7 4.7 5.5-16.3c3-9 7.1-22.4 9-29.8 4.7-17.7 5-18.4 7.2-17.5.9.4 7.5 2.7 14.7 5.2z"/></svg>