<?xml version="1.0" standalone="no"?>
<!DOCTYPE svg PUBLIC "-//W3C//DTD SVG 20010904//EN"
 "http://www.w3.org/TR/2001/REC-SVG-20010904/DTD/svg10.dtd">
<svg version="1.0" xmlns="http://www.w3.org/2000/svg"
 width="512.000000pt" height="512.000000pt" viewBox="0 0 512.000000 512.000000"
 preserveAspectRatio="xMidYMid meet">
<metadata>
Created by potrace 1.14, written by Peter Selinger 2001-2017
</metadata>
<g transform="translate(0.000000,512.000000) scale(0.100000,-0.100000)"
fill="#000000" stroke="none">
<path d="M2379 5116 c-2 -2 -40 -6 -83 -10 -44 -4 -82 -9 -85 -11 -4 -2 -34
-7 -66 -10 -109 -13 -388 -87 -490 -130 -16 -7 -49 -20 -73 -29 -64 -24 -207
-94 -298 -147 -509 -292 -914 -768 -1119 -1315 -54 -145 -103 -320 -119 -428
-4 -21 -8 -41 -10 -45 -4 -6 -12 -68 -26 -201 -8 -81 -5 -463 5 -520 3 -19 13
-78 21 -130 146 -903 784 -1672 1646 -1984 137 -49 236 -77 348 -100 105 -21
128 -25 190 -32 30 -3 76 -10 102 -14 49 -7 473 -5 518 4 14 2 45 7 70 10 36
5 171 31 271 51 9 2 49 13 90 25 790 234 1417 821 1693 1584 108 297 150 542
151 871 0 339 -43 592 -155 894 -264 717 -844 1283 -1570 1533 -87 29 -287 82
-350 92 -19 3 -46 8 -60 11 -14 3 -45 8 -70 11 -25 3 -56 8 -70 10 -28 6 -456
15 -461 10z m31 -823 l0 -515 -107 6 c-60 4 -127 9 -150 12 -24 2 -64 6 -90 9
-67 7 -171 24 -283 46 -52 10 -98 19 -102 19 -13 0 -9 21 33 175 50 182 121
399 187 565 l49 125 44 13 c24 7 53 14 64 16 11 2 57 11 102 20 45 8 113 18
150 22 37 3 70 7 71 9 2 2 10 1 18 -2 12 -4 14 -88 14 -520z m545 492 c50 -9
119 -24 153 -33 l64 -17 44 -110 c83 -207 234 -684 234 -741 0 -9 -54 -27 -77
-26 -2 0 -29 -6 -60 -13 -32 -7 -85 -16 -118 -20 -32 -3 -62 -8 -65 -10 -3 -2
-37 -6 -75 -10 -39 -3 -86 -8 -105 -10 -19 -3 -81 -8 -137 -11 l-103 -6 0 518
0 517 78 -6 c42 -4 118 -13 167 -22z m-1436 -342 c-27 -82 -70 -222 -95 -313
-25 -91 -48 -168 -50 -172 -7 -11 -419 136 -444 158 -14 14 235 227 376 322
70 46 248 150 261 152 1 0 -21 -66 -48 -147z m2296 -6 c133 -89 375 -294 375
-317 0 -12 -438 -177 -444 -168 -1 2 -15 50 -30 108 -42 156 -52 190 -111 368
l-54 163 87 -47 c48 -25 128 -73 177 -107z m-2910 -638 c45 -21 260 -99 330
-120 41 -12 75 -27 75 -33 0 -6 -6 -45 -14 -86 -18 -97 -25 -140 -31 -205 -3
-28 -8 -63 -10 -76 -3 -13 -7 -53 -11 -89 -3 -36 -7 -75 -9 -87 -3 -21 -14
-182 -20 -303 -1 -30 -3 -63 -4 -73 -1 -16 -28 -17 -453 -15 -295 2 -452 6
-451 13 1 6 4 42 8 80 3 39 8 77 10 85 2 8 7 35 10 60 36 258 176 612 338 851
l51 76 80 -34 c45 -19 90 -38 101 -44z m3625 -134 c156 -281 254 -592 276
-877 l6 -78 -451 0 c-422 0 -451 1 -452 18 -2 22 -4 67 -13 224 -4 70 -8 135
-10 145 -2 10 -7 53 -10 95 -4 42 -9 87 -11 100 -3 13 -7 44 -10 69 -3 25 -7
54 -9 65 -8 40 -19 110 -22 134 -1 14 -6 41 -9 60 l-7 36 109 34 c59 18 115
37 123 41 8 4 65 26 125 50 61 23 137 54 170 69 l60 27 40 -56 c22 -31 65
-101 95 -156z m-2855 -100 c22 -4 56 -10 75 -15 19 -5 58 -12 85 -16 28 -3 59
-8 70 -10 59 -12 380 -42 463 -43 l42 -1 0 -385 0 -385 -450 0 -450 0 5 68 c2
37 7 112 10 167 6 103 7 114 25 275 14 116 14 119 36 253 14 89 20 107 33 102
9 -2 34 -7 56 -10z m1845 6 c0 -3 7 -48 15 -100 15 -93 19 -121 30 -216 3 -27
8 -61 10 -75 7 -48 24 -261 30 -387 l3 -83 -449 0 -449 0 0 385 0 385 43 1
c86 2 311 21 394 34 18 3 54 8 80 11 27 3 98 16 158 28 120 24 135 26 135 17z
m-2309 -1178 c0 -10 2 -38 4 -63 1 -25 6 -99 10 -165 4 -66 8 -133 10 -150 2
-16 6 -55 10 -85 3 -30 7 -71 10 -90 2 -19 7 -57 10 -85 3 -27 10 -72 15 -100
5 -27 12 -68 15 -90 3 -22 8 -54 11 -70 l5 -30 -118 -39 c-135 -44 -248 -87
-379 -144 l-92 -39 -50 76 c-109 167 -191 335 -253 522 -23 67 -43 133 -45
148 -3 14 -9 40 -14 56 -15 49 -40 204 -47 288 l-6 77 452 0 c422 0 451 -1
452 -17z m1199 -368 l0 -385 -42 -1 c-67 -1 -226 -13 -320 -25 -146 -17 -200
-26 -430 -70 -10 -1 -18 0 -18 4 0 4 -7 48 -14 97 -8 50 -17 110 -21 135 -3
25 -8 56 -10 70 -2 14 -7 54 -10 90 -4 36 -8 81 -10 100 -5 43 -14 178 -20
288 l-4 82 450 0 449 0 0 -385z m1195 308 c-4 -73 -11 -185 -21 -298 -5 -65
-14 -144 -19 -175 -3 -14 -7 -50 -10 -80 -3 -30 -8 -62 -10 -70 -2 -8 -7 -35
-11 -60 -3 -25 -8 -52 -9 -60 -2 -8 -4 -23 -4 -33 -1 -13 -7 -16 -23 -13 -13
3 -68 13 -123 24 -185 37 -461 68 -632 71 l-33 1 0 385 0 385 449 0 450 0 -4
-77z m1201 0 c-27 -339 -158 -708 -358 -1014 l-50 -76 -151 64 c-84 35 -216
85 -295 111 l-143 47 5 30 c2 17 11 73 20 125 8 52 18 118 21 145 4 28 8 57
10 65 2 8 7 51 11 95 3 44 8 94 10 110 3 34 15 213 19 295 2 30 3 61 4 68 1 9
98 12 452 12 l451 0 -6 -77z m-2398 -1510 c-2 -338 -6 -517 -13 -517 -5 1 -39
5 -75 8 -123 13 -184 23 -286 49 l-86 22 -35 85 c-97 243 -258 758 -241 775 5
6 127 31 188 40 25 3 70 10 100 15 85 14 138 20 225 26 44 4 81 7 82 8 1 1 34
3 73 4 l70 3 -2 -518z m555 502 c26 -3 66 -7 90 -9 23 -2 69 -9 102 -15 33 -5
76 -12 95 -15 68 -10 193 -36 198 -41 17 -17 -135 -507 -234 -755 -42 -105
-42 -105 -86 -118 -23 -7 -56 -15 -73 -18 -153 -28 -200 -35 -267 -41 l-78 -6
0 518 0 517 103 -6 c56 -4 123 -9 150 -11z m-1581 -177 c18 -85 86 -319 132
-456 l55 -163 -87 47 c-99 53 -242 147 -322 212 -73 59 -230 203 -230 212 0
10 400 164 441 169 4 1 9 -9 11 -21z m2533 -35 c71 -24 134 -48 140 -52 5 -4
38 -18 73 -31 34 -12 62 -26 62 -30 0 -7 -114 -117 -161 -155 -13 -11 -47 -38
-74 -61 -74 -60 -218 -155 -317 -208 l-87 -47 55 163 c30 90 71 224 90 298 47
177 50 184 72 175 9 -4 75 -27 147 -52z"/>
</g>
</svg>
